<svg version="1.2" baseProfile="tiny-ps" viewBox="0 0 180 180" xmlns="http://www.w3.org/2000/svg" xml:space="preserve">
 <title>NORMA Cyber</title>
 <rect fill="#1b191c" width="180" height="180"/>
<path class="cls-1" d="m81.436 133.4c-0.6233-0.62329-1.2466-1.2466-1.8699-1.9198l-0.84145-0.89755c-0.31165-0.33658-0.62329-0.67316-0.94741-1.016l-1.1095-1.2466-0.6233-0.67316c-0.43631-0.49864-0.86638-0.99727-1.2965-1.5021l-0.31788-0.38021c-0.4924-0.5859-0.98481-1.178-1.4647-1.7764l-0.0436-0.0561a117.18 117.18 0 0 1-25.605-63.832c-0.18699-2.2314-0.31788-4.4753-0.38021-6.7316v-0.29295q-0.0374-1.5084-0.0374-3.0292v-0.72302q-5.217 1.8699-10.21 4.1512c0.0935 3.7398 0.36151 7.3674 0.76666 10.989a127.83 127.83 0 0 0 44.142 83.023q4.0514 3.4904 8.4145 6.6069 4.3631-3.1165 8.4145-6.6069-4.3631-2.9544-8.4145-6.3015-4.4503-3.665-8.5766-7.785z" fill="#f4f5fb" stroke-width=".6233"/>
 <path class="cls-1" d="m133.1 49.339a128.67 128.67 0 0 0-75.861-3.1975c-0.0436 1.3027-0.0748 2.6116-0.0748 3.9205 0 2.2376 0.0748 4.4566 0.20568 6.663a118.47 118.47 0 0 1 75.313 3.3907 117.38 117.38 0 0 1-34.094 73.287l-0.86015 0.84145q4.0639 3.2474 8.427 6.0834a127.71 127.71 0 0 0 36.388-75.849c0.40514-3.6214 0.67316-7.2801 0.76666-10.989q-4.9926-2.2875-10.21-4.1512z" fill="#f4f5fb" stroke-width=".6233"/>
</svg>
