<svg version="1.2" baseProfile="tiny-ps" viewBox="0 0 180 180" xmlns="http://www.w3.org/2000/svg" xml:space="preserve">
 <title>NORMA Cyber</title>
 <rect fill="#1b191c" width="180" height="180"/>
   <path
     class="cls-1"
     d="m 81.435899,127.40322 c -0.623301,-0.62329 -1.246591,-1.24659 -1.869891,-1.91975 l -0.84145,-0.89755 c -0.31165,-0.33658 -0.62329,-0.67316 -0.94741,-1.01597 l -1.10946,-1.24659 -0.6233,-0.67316 c -0.43631,-0.49864 -0.86638,-0.99727 -1.29646,-1.50214 l -0.31788,-0.38021 c -0.4924,-0.5859 -0.98481,-1.17803 -1.46474,-1.7764 l -0.0436,-0.0561 A 117.17967,117.17967 0 0 1 47.316698,54.103586 c -0.18699,-2.231401 -0.31788,-4.475267 -0.38021,-6.731598 0,-0.0935 0,-0.193222 0,-0.29295 q -0.0374,-1.508376 -0.0374,-3.029219 c 0,-0.236852 0,-0.479938 0,-0.723023 q -5.21699,1.869888 -10.20959,4.151152 c 0.0935,3.739777 0.36151,7.36736 0.76666,10.98871 a 127.8318,127.8318 0 0 0 44.141826,83.023062 q 4.051425,3.49045 8.414498,6.60693 4.363073,-3.11648 8.414497,-6.60693 -4.363072,-2.95443 -8.414497,-6.30153 -4.450334,-3.66498 -8.576555,-7.78497 z"
     id="path7249"
     style="fill:#f4f5fb;fill-opacity:1;stroke-width:0.623296" />
  <path
     class="cls-1"
     d="M 133.10092,43.339262 A 128.67325,128.67325 0 0 0 57.239548,40.141753 c -0.0436,1.302688 -0.0748,2.61161 -0.0748,3.920532 0,2.237633 0.0748,4.456567 0.20568,6.663036 a 118.46989,118.46989 0 0 1 75.312872,3.39073 117.37912,117.37912 0 0 1 -34.094297,73.287169 l -0.860148,0.84145 q 4.063895,3.24738 8.426965,6.08337 a 127.71337,127.71337 0 0 0 36.38802,-75.848916 c 0.40514,-3.62135 0.67316,-7.280098 0.76666,-10.98871 q -4.99261,-2.287497 -10.20959,-4.151152 z"
     id="path7251"
     style="fill:#f4f5fb;fill-opacity:1;stroke-width:0.623296" />
</svg>

